<svg id="Layer_1" data-name="Layer 1" xmlns="http://www.w3.org/2000/svg" viewBox="0 0 1080 532.36"><path d="M1080,588.38c-10.82,24.26-24.66,33.27-45.66,29.71-13.69-2.31-21.39-11.72-28.8-22.55-14.66-21.4-29-43.25-45.83-62.89C924.37,491.38,881,459.52,833.83,433c-39.87-22.4-81.61-40.79-125.46-54.13a20.24,20.24,0,0,0-6.7-1.13C756,429.17,785,491.77,783.5,566.48c-1.5,75.23-31.82,138.14-90.67,184.93-99.28,78.92-235.33,71.75-324.59-16.36-50-49.35-74.12-110.19-72.08-180.58S327.06,426,377.34,376.84c-12.2,4.07-24.55,7.73-36.57,12.28C262.71,418.65,191.33,459,132.15,518.88A386.53,386.53,0,0,0,73.5,595.8C62.25,615,46.11,622.38,27.92,617.68,3.22,611.29-7.51,583.6,5.69,560.2a446.62,446.62,0,0,1,96.39-117.74c102.35-89.18,221.62-141.83,355.36-162.3,103.9-15.91,204.53-1,302.48,34.68,93.31,34,177.19,83.44,246.67,155.29,29.65,30.67,55.53,64.31,73.41,103.48ZM640,557.55c-54.24,18.57-115.35-26.73-96.59-95.28-34.21-5.49-74.24,18-93.68,55-19,36.19-11.34,84,18.44,115.07,28.14,29.31,76.49,38.39,113,21.2C619.29,635.61,644.65,594.24,640,557.55Z" transform="translate(0 -273.82)"/></svg>