<svg id="Layer_1" data-name="Layer 1" xmlns="http://www.w3.org/2000/svg" viewBox="0 0 500 498.25"><path d="M348.16,499.13a176.15,176.15,0,0,1-32.36-4.05,247.59,247.59,0,0,1-81.15-32.77c-23-14.36-45.59-29.22-66.75-46.21-40.63-32.63-77-69.34-106.79-112.2C39.45,272.78,21.23,239.81,9.72,203.48c-6-18.78-10.61-38-9.58-57.76,1.81-34.67,13-65.54,39.7-89.31A86.75,86.75,0,0,1,68.53,39.32a36.86,36.86,0,0,1,13.23-2.13,219.77,219.77,0,0,1,22,2.29,25.32,25.32,0,0,1,20.18,14.34,172.55,172.55,0,0,1,8,19.74c8.49,24,16.82,48.15,25.18,72.25,2.6,7.5,3.76,15.15,1.81,23a24.12,24.12,0,0,1-7,11.65q-14.46,14.07-28.64,28.43A20.79,20.79,0,0,0,116.93,222a15.77,15.77,0,0,0,1,7.59,278.33,278.33,0,0,0,22.83,40.25c21.24,30.7,47.16,56.82,77,79.16a421.59,421.59,0,0,0,46.44,29.75c8.82,5,16.87,3.86,24.37-2.25,4.35-3.55,8.27-7.66,12.26-11.64,4.73-4.71,9.48-9.42,14-14.36,9.34-10.28,20.63-13.9,33.88-9.68,15.45,4.93,30.74,10.38,46.1,15.6q21.67,7.38,43.36,14.77c12.6,4.27,20.19,12.73,21.9,26.1.71,5.59,1.38,11.19,1.84,16.8.89,11-2.5,20.85-8.17,30.12-14.67,24-35.84,39.47-62.36,47.94C377.66,496.54,366.54,498.19,348.16,499.13Z" transform="translate(0 -0.87)"/><path d="M180.64,24.38c-2.24,0-6.4,0-10.56,0-6.91-.05-12.33-4.89-12.67-11.29A11.54,11.54,0,0,1,168.78,1c8.65-.24,17.35.08,26,.69A334.08,334.08,0,0,1,265.39,14.1C319.78,30,367.42,57.4,407.7,97.35s68.05,87.42,82.57,142.4a293.73,293.73,0,0,1,9.73,76c0,7.3-5.18,12.45-12.46,12.44S475.12,323,475,315.72c-1-75.58-27.74-140.85-79.59-195.54-47.33-49.91-105.59-79.8-173.28-91.44-6.58-1.13-13.22-2-19.86-2.66S189.15,25,180.64,24.38Z" transform="translate(0 -0.87)"/><path d="M213.28,76.56c40.26,1.65,77.67,12.7,111.59,34.52,40,25.72,68.6,60.73,84.56,105.77a192.65,192.65,0,0,1,11,64.34c0,7.47-5.21,12.73-12.52,12.68s-12.31-5.23-12.44-12.55q-1.22-72.42-52.08-124c-32.86-33.31-73.09-51.53-119.52-56.2-5.77-.59-11.61-.64-17.42-.81-5.32-.17-9.75-1.94-12.21-6.92-3.85-7.77,1.89-16.51,11-16.83C207.9,76.48,210.59,76.56,213.28,76.56Z" transform="translate(0 -0.87)"/><path d="M228.28,148.74c31.18,1.62,58,12.14,80.39,33.16C329,201,340.94,224.39,344.05,252.17a106.34,106.34,0,0,1,.66,11.42c0,7.11-5.27,12.29-12.37,12.34s-12.61-5-12.65-12.05c-.24-45.29-34.6-82.57-79-90a136.59,136.59,0,0,0-16.55-1.49c-7.07-.3-12.54-5.06-12.72-11.53s4.94-11.66,12.06-12.13C225.3,148.64,227.12,148.74,228.28,148.74Z" transform="translate(0 -0.87)"/></svg>