<svg id="Layer_1" data-name="Layer 1" xmlns="http://www.w3.org/2000/svg" viewBox="0 0 500 345.27"><path d="M249.93,422.63H29c-14.29,0-27.44-12.07-28.62-26.32C.2,394.16.05,392,.05,389.84Q0,250.22,0,110.58C0,97.2,4.54,86.43,17.09,80.7a38.79,38.79,0,0,1,15.66-3.19q215.79-.24,431.59-.14c14.69,0,27.06,4.12,33.66,18.56a20.71,20.71,0,0,1,1.92,8.24q.13,145.3.06,290.61c0,14.73-13.34,27.85-28,27.85Zm227.52-17.85c3.87-3.83,1.67-6.54-.8-9q-61.74-62-123.52-124c-7.75-7.78-15.33-15.74-23.2-23.39-3.73-3.61-3.77-6.61.17-9.84,1.11-.92,2.1-2,3.16-3Q399.17,175.28,465.11,115A141.39,141.39,0,0,1,477,105c2.25-1.64,4.59-3.16,2.46-5.77-.77-1-4.39-.74-5.81.24-5.46,3.79-10.59,8.07-15.78,12.24Q369,183,280.13,254.31c-19.61,15.68-41.08,15.45-60.72-.26Q123.68,177.48,28,100.82c-.7-.56-1.44-1.5-2.17-1.51a33,33,0,0,0-5.21.68c.34,1.57.23,3.51,1.13,4.64a57.6,57.6,0,0,0,6.23,6q68.54,62.64,137.05,125.31c9.25,8.46,9.15,8.55.15,17.59l-141,141.65c-.76.77-1.91,1.42-2.19,2.34a46.54,46.54,0,0,0-1.09,6.06c1.83-.4,4.11-.25,5.42-1.3q23.13-18.63,46-37.58,59-48.6,117.89-97.25c5.59-4.61,6.59-4.37,12.33.46,8.53,7.18,17,14.51,26,21.07,15.45,11.26,33.16,10.12,47.56-2.3,7.77-6.7,15.68-13.24,23.44-19.94,3.56-3.07,6.75-3.65,10.28.12a80.17,80.17,0,0,0,7.7,6.77q63.57,52.35,127.19,104.65C455.53,387.11,466.45,395.86,477.45,404.78Z" transform="translate(0 -77.37)"/></svg>