<svg id="Layer_1" data-name="Layer 1" xmlns="http://www.w3.org/2000/svg" viewBox="0 0 500 246.46"><path d="M500,272.4c-5,11.23-11.42,15.4-21.14,13.75-6.34-1.07-9.9-5.43-13.33-10.44-6.79-9.9-13.43-20-21.22-29.11C428,227.49,407.87,212.74,386,200.47A292.32,292.32,0,0,0,328,175.41a9.4,9.4,0,0,0-3.1-.52c25.15,23.8,38.57,52.78,37.88,87.37-.69,34.83-14.73,63.95-42,85.61-46,36.54-108.94,33.22-150.27-7.57-23.15-22.85-34.31-51-33.37-83.6s14.31-59.5,37.58-82.24c-5.64,1.89-11.36,3.58-16.93,5.69-36.13,13.67-69.18,32.34-96.58,60.07A179.22,179.22,0,0,0,34,275.83c-5.21,8.89-12.68,12.31-21.1,10.13C1.49,283-3.48,270.19,2.64,259.35a206.87,206.87,0,0,1,44.62-54.51c47.39-41.28,102.6-65.66,164.52-75.14,48.1-7.36,94.69-.44,140,16.06,43.2,15.71,82,38.63,114.2,71.89,13.73,14.2,25.71,29.78,34,47.91ZM296.3,258.13c-25.11,8.59-53.4-12.38-44.72-44.11-15.83-2.55-34.37,8.34-43.37,25.48-8.8,16.75-5.25,38.9,8.54,53.27,13,13.57,35.41,17.77,52.3,9.82C286.71,294.26,298.45,275.11,296.3,258.13Z" transform="translate(0 -126.77)"/></svg>