<svg id="Layer_1" data-name="Layer 1" xmlns="http://www.w3.org/2000/svg" viewBox="0 0 499.95 500"><defs><style>.cls-1{fill:#fff;}</style></defs><path d="M500,250.12C499.68,388.43,387.24,500.44,249.13,500,110.71,499.56-.25,387.64,0,248.74.3,111.48,112.63-.24,250.11,0,387.89.24,500.27,112.73,500,250.12ZM271.55,438.58V281.72c15.33,0,29.6.17,43.85-.17,2.35-.06,6.39-2,6.68-3.64,3.55-19.67,6.54-39.44,9.89-60.49H271.41c0-16,0-30.79,0-45.59,0-13.15,6.34-22.21,18.39-26.47,6.32-2.23,13.38-2.74,20.16-3.19,7.83-.52,15.71-.12,23.51-.12V88.87c-12.23-.56-23.74-1.14-35.26-1.62-8.51-.35-17.07-1.26-25.53-.74-35.84,2.2-61.23,24.18-67.26,61.16-3.2,19.62-1.87,40-2.6,60-.12,3.15-.29,6.3-.46,10.15H145.81v64H203V438.58Z" transform="translate(-0.03 0)"/><path class="cls-1" d="M271.55,438.58H203V281.79H145.81v-64h56.54c.17-3.85.34-7,.46-10.15.73-20-.6-40.38,2.6-60,6-37,31.42-59,67.26-61.16,8.46-.52,17,.39,25.53.74,11.52.48,23,1.06,35.26,1.62v53.18c-7.8,0-15.68-.4-23.51.12-6.78.45-13.84,1-20.16,3.19-12.05,4.26-18.43,13.32-18.39,26.47,0,14.8,0,29.61,0,45.59H332c-3.35,21.05-6.34,40.82-9.89,60.49-.29,1.62-4.33,3.58-6.68,3.64-14.25.34-28.52.17-43.85.17Z" transform="translate(-0.03 0)"/></svg>