<svg id="Layer_1" data-name="Layer 1" xmlns="http://www.w3.org/2000/svg" viewBox="0 0 500 500.13"><defs><style>.cls-1{fill:#fff;}</style></defs><path d="M500,250.15c0,138.46-111.95,250.1-250.59,249.94C111.77,499.93-.53,387.14,0,249.57.53,111.51,112.62-.22,250.41,0,388.41.15,500,112,500,250.15ZM249.69,409.71c24.47,0,48.95.29,73.42-.07,48.93-.7,86.33-37.56,86.88-86.33q.83-73.42,0-146.87c-.55-48.57-38.81-85.79-87.28-85.87q-73-.12-146,0c-48.15.13-86.28,38.43-86.35,86.65q-.1,71.37,0,142.74c0,52.18,37.05,89.47,89.23,89.72C202.94,409.81,226.31,409.71,249.69,409.71Z" transform="translate(0 0.03)"/><path class="cls-1" d="M249.69,409.71c-23.38,0-46.75.1-70.13,0-52.18-.25-89.22-37.54-89.23-89.72q0-71.37,0-142.74c.07-48.22,38.2-86.52,86.35-86.65q73-.18,146,0c48.47.08,86.73,37.3,87.28,85.87q.83,73.42,0,146.87c-.55,48.77-37.95,85.63-86.88,86.33C298.64,410,274.16,409.71,249.69,409.71ZM381.83,250c0-23.38.06-46.77,0-70.15-.13-35.66-25-61-60.62-61.21q-71-.36-141.95,0c-35.56.15-60.73,25.29-60.92,61q-.39,70.58,0,141.14c.2,35.57,25.49,60.62,61.13,60.76q71,.27,142,0c35.05-.14,60.22-25.49,60.41-60.54C381.93,297.29,381.83,273.62,381.83,250Z" transform="translate(0 0.03)"/><path d="M381.83,250c0,23.66.1,47.33,0,71-.19,35.05-25.36,60.4-60.41,60.54q-71,.28-141.95,0c-35.64-.14-60.93-25.19-61.13-60.76q-.41-70.58,0-141.14c.19-35.71,25.36-60.85,60.92-61q71-.31,142,0c35.58.18,60.49,25.55,60.62,61.21C381.89,203.19,381.83,226.58,381.83,250ZM250.39,337.15c47.85,0,87.58-39.47,87.52-87-.05-47.35-40-87.18-87.54-87.22-47.85,0-87,39.18-87,87.24A86.75,86.75,0,0,0,250.39,337.15Zm85.18-154c10.3.11,19.08-8.55,18.95-18.66-.14-9.78-8.67-18.19-18.53-18.27a18.47,18.47,0,1,0-.42,36.93Z" transform="translate(0 0.03)"/><path class="cls-1" d="M250.39,337.15a86.75,86.75,0,0,1-87-87c0-48.06,39.18-87.29,87-87.24,47.51,0,87.49,39.87,87.54,87.22C338,297.68,298.24,337.18,250.39,337.15Zm56.84-86.67c.18-31-25.23-56.82-56.41-57.26-31.34-.45-57.66,25.36-57.84,56.69a57.45,57.45,0,0,0,56.85,57.69C281.22,307.81,307,282.11,307.23,250.48Z" transform="translate(0 0.03)"/><path class="cls-1" d="M335.57,183.19a18.47,18.47,0,1,1,.42-36.93c9.86.08,18.39,8.49,18.53,18.27C354.65,174.64,345.87,183.3,335.57,183.19Z" transform="translate(0 0.03)"/><path d="M307.23,250.48c-.19,31.63-26,57.33-57.4,57.12A57.45,57.45,0,0,1,193,249.91c.18-31.33,26.5-57.14,57.84-56.69C282,193.66,307.41,219.45,307.23,250.48Z" transform="translate(0 0.03)"/></svg>