<svg id="Layer_1" data-name="Layer 1" xmlns="http://www.w3.org/2000/svg" viewBox="0 0 499.94 500"><defs><style>.cls-1{fill:#fff;}</style></defs><path d="M0,249.5C1.36,109.74,114.08-1.48,252.9,0,391.22,1.5,501.13,114.18,500,253.3c-1.15,136.63-114.61,248-251.27,246.69C110.74,498.64-1.25,385.82,0,249.5ZM201,389.27c14.75,0,29,.05,43.2,0s12.46,1.38,12.5-12.14c.1-30-.24-59.95.17-89.92.31-21.61,17.82-38.14,39.51-38.32,20.32-.17,35.36,14.89,36.66,36.77.17,3,.13,6,.13,9.07,0,28.87-.05,57.74.05,86.61,0,3.19-1.61,7.85,4.29,7.88,17,.07,33.93,0,51.13,0a47.72,47.72,0,0,0,.74-5.68c0-41.24.27-82.49-.33-123.73-.12-8.26-2.51-16.91-5.67-24.64-19.94-48.78-94.27-46.76-119.14-19-1.92,2.14-4,4.16-7.7,8.06V200.1H201Zm-33.94-.47V200.25H111.8V388.8ZM138.93,103.69c-18.9,0-33.7,15.12-33.6,34.28s14.89,34.34,33.7,34.3a34.29,34.29,0,0,0-.1-68.58Z" transform="translate(-0.03 0)"/><path class="cls-1" d="M201,389.27V200.1h55.54v24.16c3.73-3.9,5.78-5.92,7.7-8.06,24.87-27.78,99.2-29.8,119.14,19,3.16,7.73,5.55,16.38,5.67,24.64.6,41.24.34,82.49.33,123.73a47.72,47.72,0,0,1-.74,5.68c-17.2,0-34.16,0-51.13,0-5.9,0-4.28-4.69-4.29-7.88-.1-28.87-.05-57.74-.05-86.61,0-3,0-6.06-.13-9.07-1.3-21.88-16.34-36.94-36.66-36.77-21.69.18-39.2,16.71-39.51,38.32-.41,30-.07,59.95-.17,89.92,0,13.52,1.72,12.07-12.5,12.14S215.78,389.27,201,389.27Z" transform="translate(-0.03 0)"/><path class="cls-1" d="M167.09,388.8H111.8V200.25h55.29Z" transform="translate(-0.03 0)"/><path class="cls-1" d="M138.93,103.69a34.29,34.29,0,0,1,.1,68.58c-18.81,0-33.6-15-33.7-34.3S120,103.71,138.93,103.69Z" transform="translate(-0.03 0)"/></svg>