<svg id="Layer_1" data-name="Layer 1" xmlns="http://www.w3.org/2000/svg" viewBox="0 0 348.03 500"><path d="M249.6,500c-23.27-36.53-46.66-72.58-69.35-109.06C152.3,346,123.83,301.34,97.54,255.43,38.17,151.74,108,15.31,226.82,1.35c110.53-13,201.4,69.21,197,180.57-.9,23-6.43,48.41-17.94,67.91-49,83-101.08,164.29-152.08,246.16C253.09,497.2,251.72,498,249.6,500Zm.66-403.2A76.88,76.88,0,0,0,250,250.55c42.49.37,77.6-34.94,77.25-77.67A76.54,76.54,0,0,0,250.26,96.8Z" transform="translate(-75.99 0)"/></svg>