<svg id="Layer_1" data-name="Layer 1" xmlns="http://www.w3.org/2000/svg" viewBox="0 0 1080 1080.33"><path d="M514.37,253.13V223.32q0-97.63.07-195.27c0-14.68,6.74-23.82,19-27.21,10.9-3,22.81.75,28.17,10.79,3,5.67,4.25,12.93,4.27,19.48.3,69.91.19,139.82.19,209.73v12.33c148.55,25.46,234.85,111.41,260.88,260.56h12.85q103.66,0,207.32,0c4,0,8.11-.12,12,.68,13.45,2.79,21.49,13.37,20.87,26.88-.61,13.13-10.12,23.14-23.68,24.51-4.78.49-9.64.21-14.46.21H826.92C801.46,714.58,715.19,800.52,566.06,826.81v12.51c0,70.32-.09,140.63.09,210.94,0,11.86-3.43,21.49-14.34,27-17.4,8.78-37-3.29-37.4-23.33-.48-26.11-.18-52.24-.12-78.35.09-46.21.08-92.41.53-138.61.08-8.67-1.91-12.24-11.5-13.74C386.87,805,308.68,739.7,268.65,629.21c-7.19-19.83-10.26-41.14-15.56-63.15H241.23q-106.06,0-212.14,0c-14.6,0-24-6.44-27.81-18.41C-2.1,537,1.25,524.38,11,519.1c6.34-3.44,14.4-5.11,21.71-5.15,68.7-.37,137.41-.22,206.11-.22h14.37C278.74,365.52,364.92,278.91,514.37,253.13Zm53,55.83c-.36.7-1,1.4-1,2.11-.13,13.25-.18,26.5-.26,39.75-.11,18.21-10,29.8-25.62,30-15.84.17-25.85-11-26-29.42-.14-14.26,0-28.52,0-42.84-103.63,6.69-199.13,100.72-205.63,205.19,14.85,0,29.64-.26,44.43.08,15.76.36,26.28,9.51,27.49,23.17,1.44,16.44-9.35,28.59-26.41,29-15.39.36-30.8.08-46.34.08C321,693.18,434.73,770.14,514.36,770.4c0-14-.15-28,0-42,.24-18.18,10.48-29.54,26.15-29.39s25.34,11.56,25.48,30.11c.11,14,0,28,0,42,91.88-4.25,195.15-87.69,206.15-205.08-15.67,0-31.25.46-46.8-.12-19.72-.74-31.79-19.36-23.94-36.43,5.09-11.06,14.42-15.68,26.28-15.7,14.75,0,29.5,0,44.35,0C761.85,398.33,659.07,312.75,567.33,309Z" transform="translate(0 0.17)"/><path d="M612,978.65c0-15.51-.59-30,.46-44.3.23-3.18,5.84-7.74,9.66-8.6q137.24-30.88,225.75-140a383.17,383.17,0,0,0,77.41-162.61c.5-2.35,1.13-4.68,1.8-7a35.93,35.93,0,0,1,1.49-3.66h50.24C955.38,795.61,793,955.61,612,978.65Z" transform="translate(0 0.17)"/><path d="M613,101.74c160.73,17.85,336.23,162.68,366.37,365.42h-51c-3.44-12.93-6.3-26.17-10.48-39-47.59-146-146.39-237-295.26-273.54-8.43-2.07-11.3-4.88-10.8-13.36.73-12.41.26-24.89.37-37.34A6.56,6.56,0,0,1,613,101.74Z" transform="translate(0 0.17)"/><path d="M100.79,612.6h51.69c8.21,41.22,21.45,80.23,42,116.4,59.22,104.12,147.09,170,264.15,196.39,7.49,1.68,9.84,4.53,9.55,11.93-.54,13.54-.15,27.11-.15,40.79C309.69,960,132.13,819.6,100.79,612.6Z" transform="translate(0 0.17)"/><path d="M152.14,467.35h-52q24.3-141.72,124.56-242.29C291.78,157.85,372.44,116.37,468,99.85c0,16.93.43,32.1-.41,47.2-.14,2.53-5.43,6.16-8.86,6.92C386.05,170.08,322.3,203.2,268.5,254.63,210.68,309.92,172.7,376.72,155.29,455,154.43,458.87,153.34,462.68,152.14,467.35Z" transform="translate(0 0.17)"/><path d="M449.72,539.34c.13-49.38,40.37-89.79,89.5-89.88,51.35-.1,91.79,40.41,91.49,91.65-.29,49.47-41.27,89.53-91.48,89.42C489.69,630.42,449.59,589.56,449.72,539.34Z" transform="translate(0 0.17)"/></svg>