<svg id="Layer_1" data-name="Layer 1" xmlns="http://www.w3.org/2000/svg" viewBox="0 0 499.94 500"><defs><style>.cls-1{fill:#fff;}</style></defs><path d="M500,250.4c-.2,138.1-112.79,250-251.08,249.6C111.32,499.56,0,387.76,0,250.08.08,111.67,112.43-.53,250.45,0S500.17,112.65,500,250.4ZM251.85,205.34c-55.39-.57-95.79-28-131.7-66.32-16.93,34.31-8.36,61.68,19.78,84.74L138.36,226l-27-7.1c2.8,29.87,17.84,50.35,46.68,60.62-.3.67-.61,1.34-.92,2H132c5.23,13,11.61,23.84,22,30.64,10.28,6.7,22.06,11.08,33.35,16.56C177,338.9,163,345.11,147.78,348.11c-14.82,2.92-29.94,4.37-45.63,6.56,1.63,1.05,2.7,1.86,3.87,2.47C134.85,372.05,165.4,380,198,380c96.7,0,185.56-74.47,182.09-185-.1-3,2.34-7.13,4.87-8.86a75.1,75.1,0,0,0,24.18-26.9l-29,7.64c9.2-10.61,18.15-20.29,22.44-34.12-10.59,4.63-20.2,8.59-29.59,13-5.69,2.7-9.62,1.68-14.6-2.43-39-32.18-98.29-10.74-106.31,38.41C250.84,188.9,251.85,196.45,251.85,205.34Z" transform="translate(-0.03 0)"/><path class="cls-1" d="M251.85,205.34c0-8.89-1-16.44.16-23.62,8-49.15,67.32-70.59,106.31-38.41,5,4.11,8.91,5.13,14.6,2.43,9.39-4.45,19-8.41,29.59-13-4.29,13.83-13.24,23.51-22.44,34.12l29-7.64a75.1,75.1,0,0,1-24.18,26.9c-2.53,1.73-5,5.89-4.87,8.86,3.47,110.54-85.39,185-182.09,185-32.57,0-63.12-7.9-91.95-22.81-1.17-.61-2.24-1.42-3.87-2.47,15.69-2.19,30.81-3.64,45.63-6.56,15.21-3,29.22-9.21,39.6-19.34-11.29-5.48-23.07-9.86-33.35-16.56-10.43-6.8-16.81-17.67-22-30.64h25.15c.31-.67.62-1.34.92-2-28.84-10.27-43.88-30.75-46.68-60.62l27,7.1,1.57-2.28c-28.14-23.06-36.71-50.43-19.78-84.74C156.06,177.37,196.46,204.77,251.85,205.34Z" transform="translate(-0.03 0)"/></svg>