<svg id="Layer_1" data-name="Layer 1" xmlns="http://www.w3.org/2000/svg" viewBox="0 0 1076.38 527.08"><path d="M539.47,803.53c-102.35-.5-197.67-28.39-288.58-73.87C165.32,686.85,88.52,631.73,19.15,566c-22.85-21.63-23.22-29.84-.47-51.28,104.6-98.56,222.76-174.67,361.78-215.19,134-39.06,265.1-27.3,393.23,25.6,111.38,46,209,112.85,295.12,196.74,11.65,11.35,12.63,23.89,1.92,34.28-110,106.66-235.45,187.48-384.58,228.07A544.54,544.54,0,0,1,539.47,803.53ZM758.74,540.06a218.7,218.7,0,0,0-218.9-218.77c-119.92-.12-218.52,98.3-218.71,218.32-.18,121,98.59,219.55,219.72,219.22C661.17,758.51,758.88,660.4,758.74,540.06Zm-703.94.05c89,80,185.68,144,297.28,184.17C304.33,671.7,277.81,610.94,278,539.61c.22-70.91,26.26-131.65,74.06-183.83C240.23,396.24,143.32,460,54.8,540.11Zm673.36-184.2c48.13,52.33,74.19,113.37,74.07,184.55-.13,70.81-26.14,131.67-74.06,183.79C840,683.8,936.82,620,1025.28,540.06,936.74,460.06,839.86,396.28,728.16,355.91Z" transform="translate(-1.81 -276.46)"/><path d="M500,418.48c51.43-20.7,116.26,2.27,148.5,52.22,33.15,51.38,24.88,120.08-19.59,162.58-43.86,41.93-112.34,47.38-161.62,12.85-47.17-33-69.45-99.28-48.53-146.36,13.82,15,30.54,22.54,50.95,20.4,14.28-1.5,26.17-7.83,35.82-18.23C527.4,478.4,525.51,447.54,500,418.48Z" transform="translate(-1.81 -276.46)"/></svg>