<svg id="Layer_1" data-name="Layer 1" xmlns="http://www.w3.org/2000/svg" viewBox="0 0 499.99 500.03"><defs><style>.cls-1{fill:#fff;}</style></defs><path d="M500,250.65c-1.43,139.17-113.6,250.46-251.37,249.4C110,499-1.46,386,0,248.11,1.52,109.26,114-1.27,252.4,0,389.5,1.31,501.38,114.56,500,250.65ZM98.85,408c3.66-.37,6.06-.48,8.42-.88,23-3.94,46-8.07,69.09-11.75a23.37,23.37,0,0,1,11.88,1.17,163,163,0,0,0,62,11.82c87.85-.13,158-70.51,158.05-158.68,0-87.57-71-158.42-158.69-158.31-112.12.16-188.95,114.42-146.27,218.36,4.87,11.84,6.37,22.74,4,34.92-1.9,10-3,20.12-4.3,30.2C101.6,385.63,100.3,396.43,98.85,408Z" transform="translate(-0.01 -0.02)"/><path class="cls-1" d="M98.85,408c1.45-11.56,2.75-22.36,4.18-33.15,1.33-10.08,2.4-20.22,4.3-30.2,2.33-12.18.83-23.08-4-34.92C60.61,205.78,137.44,91.52,249.56,91.36c87.67-.11,158.69,70.74,158.69,158.31,0,88.17-70.2,158.55-158,158.68a163,163,0,0,1-62-11.82,23.37,23.37,0,0,0-11.88-1.17c-23.07,3.68-46.06,7.81-69.09,11.75C104.91,407.51,102.51,407.62,98.85,408Zm32.67-32.35c16.51-2.86,31.32-5.81,46.25-7.8a30.52,30.52,0,0,1,15.6,1.89c21.61,9.46,43.9,13.69,67.47,11.84,73.88-5.81,129.91-74.16,120.3-147C371,158.09,300.44,106,226,120.1c-88.89,16.85-134.45,113.06-92,193.62a32.64,32.64,0,0,1,3.15,17C136.05,345.15,133.66,359.5,131.52,375.64Z" transform="translate(-0.01 -0.02)"/><path d="M131.52,375.64c2.14-16.14,4.53-30.49,5.69-44.93a32.64,32.64,0,0,0-3.15-17C91.57,233.16,137.13,137,226,120.1c74.42-14.12,145,38,155.12,114.5,9.61,72.81-46.42,141.16-120.3,147-23.57,1.85-45.86-2.38-67.47-11.84a30.52,30.52,0,0,0-15.6-1.89C162.84,369.83,148,372.78,131.52,375.64Zm90.9-163.84c-5.14-11.91-9.25-23-14.65-33.31-2.75-5.28-8.42-4.06-13.23-1.62-15.83,8.06-25.28,26-21.14,43.48A134.29,134.29,0,0,0,185.08,251c21.73,41.68,55.84,67.69,101.72,78.11,10,2.28,18.51-.71,25.39-8.13,3.73-4,7.23-8.28,10.58-12.62,4.18-5.41,4.11-10.8-1.43-15.21-6.22-5-12.37-10.23-19.31-14-3.07-1.65-8.82-1.23-11.9.64C284.85,283,281,288.49,276,292.23c-2.43,1.81-7.1,3.54-9.19,2.41-24.76-13.36-45-31.34-56.45-57.82-1.76-4.08-1-6.7,2.23-10.07C216.49,222.59,219,217.13,222.42,211.8Z" transform="translate(-0.01 -0.02)"/><path class="cls-1" d="M222.42,211.8c-3.4,5.33-5.93,10.79-9.86,14.95-3.18,3.37-4,6-2.23,10.07,11.45,26.48,31.69,44.46,56.45,57.82,2.09,1.13,6.76-.6,9.19-2.41,5-3.74,8.88-9.22,14.16-12.43,3.08-1.87,8.83-2.29,11.9-.64,6.94,3.75,13.09,9,19.31,14,5.54,4.41,5.61,9.8,1.43,15.21-3.35,4.34-6.85,8.6-10.58,12.62-6.88,7.42-15.37,10.41-25.39,8.13-45.88-10.42-80-36.43-101.72-78.11a134.29,134.29,0,0,1-11.68-30.64c-4.14-17.47,5.31-35.42,21.14-43.48,4.81-2.44,10.48-3.66,13.23,1.62C213.17,188.85,217.28,199.89,222.42,211.8Z" transform="translate(-0.01 -0.02)"/></svg>